{"glyphs":{":":{"x_min":0,"x_max":291,"ha":291,"o":"m 180 72 q 180 40 163 21 q 147 1 126 1 l 117 0 l 106 0 l 104 0 l 101 0 q 97 1 95 1 q 75 1 75 15 q 73 21 73 22 l 72 33 l 72 39 q 72 76 90 94 q 108 111 133 111 l 148 111 l 158 109 q 178 109 178 93 q 179 90 179 88 l 180 81 z m 209 463 l 221 463 q 254 463 254 435 l 254 422 l 252 408 q 252 375 230 363 q 209 351 188 351 l 186 351 l 184 351 l 179 351 q 171 353 170 353 q 149 353 149 369 q 148 373 148 374 l 147 383 l 147 392 l 149 409 q 149 430 166 447 q 183 463 209 463 z"},"$":{"x_min":0,"x_max":543,"ha":543,"o":"m 406 183 l 406 195 q 406 220 390 245 q 367 283 343 283 l 339 283 q 334 283 333 272 q 310 149 296 106 q 281 62 281 58 l 281 53 q 281 51 287 51 l 289 51 q 294 52 297 52 q 333 52 369 93 q 406 134 406 183 z m 341 599 l 341 601 q 341 604 338 604 l 331 604 q 326 604 324 604 q 293 604 261 567 q 229 531 229 492 l 229 476 q 229 453 249 425 q 269 397 292 397 q 298 397 298 409 l 300 422 q 303 438 303 448 q 303 458 322 528 q 341 598 341 599 z m 524 572 q 524 542 489 542 q 485 542 457 567 q 428 592 405 592 q 386 592 370 548 q 337 457 337 407 q 337 386 384 348 q 431 310 452 280 q 474 249 474 209 q 474 131 423 76 q 372 21 304 9 q 264 1 257 -6 q 250 -13 237 -43 q 225 -73 212 -73 q 194 -73 190 -51 q 183 -14 177 -7 q 171 0 143 10 q 115 21 95 43 q 75 65 75 97 q 75 130 103 130 q 109 130 146 96 q 183 62 210 62 q 237 62 251 91 q 264 119 278 185 q 292 250 292 259 q 292 295 248 332 q 204 368 184 399 q 164 430 164 465 q 164 534 221 594 q 253 626 293 641 q 360 666 367 672 q 374 679 385 694 q 395 709 401 709 l 410 709 q 431 709 507 618 q 524 598 524 572 z"},"?":{"x_min":0,"x_max":460,"ha":460,"o":"m 129 42 l 130 57 q 130 64 148 92 q 157 104 174 104 q 181 106 183 106 l 194 107 l 196 107 l 209 105 q 230 105 230 87 l 231 81 l 231 78 l 232 73 l 232 69 q 232 34 216 17 q 199 1 183 1 q 180 0 178 0 l 168 -1 l 165 -1 l 151 1 q 129 1 129 27 l 129 41 z m 304 690 l 322 690 q 386 690 424 649 q 462 608 462 559 l 462 550 q 462 504 432 455 q 401 405 313 332 q 282 306 270 291 q 257 276 251 233 q 244 191 227 191 l 219 191 q 193 191 193 240 q 193 290 224 331 q 241 354 291 398 q 340 443 362 478 q 383 514 383 548 q 383 582 360 605 q 336 628 295 628 q 254 628 221 597 q 188 565 167 565 q 146 565 146 584 l 146 590 q 146 629 199 660 q 252 690 304 690 z"},"<":{"x_min":0,"x_max":578,"ha":578,"o":"m 168 285 q 168 272 308 202 q 448 131 476 112 q 504 92 504 60 q 504 42 495 42 q 493 42 169 208 q 81 253 81 272 l 81 281 q 81 305 111 321 q 488 520 516 520 q 528 520 528 509 l 528 500 q 528 468 490 445 q 464 430 316 360 q 168 290 168 285 z"},"'":{"x_min":0,"x_max":242,"ha":242,"o":"m 216 705 l 227 705 q 250 705 250 693 l 250 684 q 250 680 229 592 q 209 504 197 478 q 185 452 167 452 l 161 452 q 148 452 148 459 l 148 471 l 148 475 l 149 487 q 150 491 150 494 l 151 507 q 153 516 153 520 l 154 533 q 158 553 158 565 l 159 578 l 160 590 q 163 609 164 617 q 165 625 166 632 q 167 640 167 658 q 167 676 176 691 q 186 705 216 705 z"},"=":{"x_min":0,"x_max":581,"ha":581,"o":"m 132 225 l 518 225 q 542 225 542 209 l 542 204 l 542 200 q 542 172 530 170 q 517 167 313 167 l 110 167 q 81 167 81 178 l 81 192 q 81 215 88 220 q 95 225 132 225 z m 552 393 l 552 379 q 552 353 542 349 q 533 345 461 345 l 123 345 q 91 345 91 360 l 91 369 q 91 396 102 399 q 112 403 183 403 l 521 403 q 552 403 552 393 z"},"a":{"x_min":0,"x_max":509,"ha":509,"o":"m 379 354 l 379 364 q 379 385 363 398 q 347 411 320 411 l 306 411 q 274 411 243 389 q 178 344 142 241 q 125 191 125 146 l 125 132 q 125 123 125 118 q 125 90 140 72 q 155 55 174 55 l 186 55 q 215 55 253 86 q 329 147 363 267 q 379 325 379 354 z m 466 417 l 466 409 q 466 397 443 302 q 420 207 420 148 q 420 124 440 104 q 461 83 461 66 q 461 48 437 30 q 412 12 384 12 l 377 12 q 355 12 340 45 q 324 79 311 79 q 302 79 278 62 q 254 46 239 38 q 204 19 155 19 q 105 19 77 50 q 49 80 49 133 l 49 152 q 50 206 77 266 q 132 386 228 435 q 270 456 303 456 q 336 456 367 446 q 398 437 400 437 l 442 446 q 466 446 466 417 z"},"L":{"x_min":0,"x_max":535,"ha":535,"o":"m 257 688 q 292 688 313 678 q 335 668 335 651 q 335 633 309 603 q 283 573 269 527 q 255 481 236 389 q 217 297 196 206 q 175 115 175 104 q 175 81 201 73 q 227 64 284 64 q 340 64 381 83 q 460 119 469 119 q 488 119 488 94 q 488 41 461 18 q 445 3 376 3 l 180 3 q 41 3 41 28 l 41 36 q 41 37 66 75 q 91 114 97 136 q 104 157 151 363 q 198 568 198 582 q 198 596 190 615 q 181 635 181 641 q 181 661 201 674 q 222 688 246 688 z"},"3":{"x_min":0,"x_max":535,"ha":535,"o":"m 335 663 l 352 663 q 415 663 457 637 q 499 613 499 562 q 498 476 416 407 q 359 360 359 359 q 359 352 392 330 q 424 309 442 278 q 459 247 459 197 q 459 150 438 111 q 392 30 306 -2 q 258 -21 211 -21 l 195 -21 q 135 -21 84 7 q 34 35 34 69 l 34 80 q 34 101 62 101 q 64 101 113 69 q 161 37 204 37 q 289 37 338 88 q 379 130 379 191 q 379 251 337 284 q 314 302 268 313 q 222 324 222 339 q 222 360 279 384 q 336 408 366 438 q 411 482 411 532 q 411 562 380 580 q 349 599 308 599 q 267 599 219 574 q 170 549 165 549 q 156 549 156 559 q 156 595 214 629 q 273 663 335 663 z"},";":{"x_min":0,"x_max":291,"ha":291,"o":"m 136 116 l 146 116 q 178 116 178 89 l 178 83 l 177 79 q 177 21 139 -37 q 100 -95 72 -114 q 44 -132 37 -132 l 34 -132 q 20 -132 20 -122 l 20 -117 q 20 -110 34 -97 q 92 -44 92 0 q 92 4 87 16 q 81 30 81 47 l 81 56 q 81 83 97 100 q 113 116 136 116 z m 220 463 q 252 463 252 443 l 253 433 l 253 420 q 253 392 232 365 q 220 351 188 351 l 184 351 q 147 351 147 379 l 147 394 l 149 407 q 149 426 168 449 q 179 462 200 462 l 211 463 z"},"J":{"x_min":0,"x_max":448,"ha":448,"o":"m 21 69 q 38 69 64 56 q 91 42 118 42 q 146 42 184 75 q 222 107 244 162 q 267 216 292 334 q 317 452 317 529 q 317 560 303 578 q 275 613 275 620 q 275 646 303 664 q 332 683 370 683 q 409 683 436 665 q 450 655 450 643 q 450 631 441 612 q 433 593 422 546 l 419 535 q 416 524 413 512 l 404 476 q 392 425 384 390 q 332 146 300 85 q 268 24 214 -11 q 160 -46 108 -46 q 56 -46 22 -24 q -11 -2 -11 33 q -11 69 21 69 z"},"V":{"x_min":0,"x_max":622,"ha":622,"o":"m 248 633 q 241 601 241 578 q 241 557 249 502 q 264 400 274 302 l 278 252 q 290 143 292 135 q 293 128 300 128 l 307 136 q 378 235 520 509 q 557 580 557 624 q 557 685 645 685 q 688 685 688 655 q 688 638 658 604 q 627 571 479 321 q 331 71 309 40 q 287 8 256 8 q 235 8 228 46 q 224 62 218 126 q 211 190 190 345 q 168 500 160 532 q 153 564 131 590 q 110 615 110 634 q 110 653 131 664 q 151 676 184 676 q 248 676 248 633 z"},"\"":{"x_min":0,"x_max":385,"ha":385,"o":"m 213 711 l 229 711 q 250 711 250 697 l 250 694 q 249 688 249 685 q 249 629 194 480 q 187 458 167 458 l 161 458 l 159 458 q 147 458 147 468 l 147 477 q 149 486 150 494 q 150 502 151 510 q 152 519 153 525 q 154 531 155 542 q 158 565 158 570 l 159 583 l 161 599 q 166 634 166 643 l 169 664 q 169 692 180 702 q 191 711 213 711 z m 381 711 q 403 711 403 697 l 403 694 q 403 668 388 618 q 373 567 364 532 q 356 497 347 477 q 338 458 320 458 l 312 458 q 301 458 301 468 l 301 474 l 302 477 l 302 480 l 304 500 q 305 509 305 512 l 307 525 q 311 556 311 564 l 312 577 l 313 589 q 316 610 317 617 q 318 624 319 631 q 320 639 320 643 l 323 667 q 323 710 361 710 l 367 711 z"},"7":{"x_min":0,"x_max":530,"ha":530,"o":"m 145 -20 l 134 -20 q 106 -20 106 -3 q 106 8 120 38 q 164 130 266 283 q 444 547 444 560 q 444 580 427 585 q 409 590 333 590 q 258 590 206 573 q 155 557 152 557 q 131 557 131 575 q 131 615 157 636 q 183 657 230 657 l 253 657 l 266 656 l 278 657 q 291 657 303 657 l 354 658 l 418 658 q 550 658 550 633 l 550 625 q 550 612 539 593 q 528 573 452 461 q 279 204 217 75 q 190 17 178 -1 q 166 -20 145 -20 z"},"S":{"x_min":0,"x_max":541,"ha":541,"o":"m 536 597 q 536 547 497 547 q 488 547 466 576 q 444 605 419 620 q 394 635 340 635 q 286 635 248 599 q 210 562 210 517 q 210 472 246 438 q 268 418 345 375 q 422 333 453 294 q 483 256 483 194 q 483 113 417 55 q 383 24 338 9 q 292 -6 253 -6 l 237 -6 q 151 -6 85 23 q 62 34 50 56 q 39 78 39 93 l 39 105 q 39 129 49 144 q 59 159 73 159 q 88 159 109 125 q 155 51 248 51 q 321 51 364 89 q 407 127 407 187 q 407 227 369 263 q 349 283 271 327 q 193 371 164 408 q 134 445 134 509 q 134 537 149 572 q 165 607 195 634 q 226 661 266 676 q 307 692 343 692 l 360 692 q 441 692 498 667 q 536 651 536 610 z"},"}":{"x_min":0,"x_max":371,"ha":371,"o":"m 302 604 q 302 572 283 493 q 264 414 264 380 q 264 347 288 324 q 295 317 313 306 q 330 295 330 285 q 330 268 290 250 q 249 233 233 200 q 216 168 201 60 q 186 -48 155 -94 q 133 -125 92 -145 q 51 -164 9 -164 q -9 -164 -9 -153 q -9 -132 35 -113 q 79 -93 98 -59 q 118 -25 133 67 q 148 160 162 193 q 176 226 202 249 q 208 254 228 266 q 247 278 247 282 q 247 283 230 300 q 196 334 196 390 q 196 413 213 488 q 229 563 229 592 q 229 620 217 640 q 212 648 185 669 q 158 690 158 710 q 158 723 176 723 q 232 723 267 691 q 302 660 302 604 z"},"Z":{"x_min":0,"x_max":586,"ha":586,"o":"m 530 90 q 530 48 493 23 q 456 -1 397 -1 l 343 -1 l 324 -1 l 287 0 q 268 0 249 0 l 190 1 q 171 2 119 2 q 67 2 47 8 q 26 14 26 35 q 26 56 257 328 q 487 600 487 608 q 487 628 359 628 q 301 628 271 620 q 241 612 206 595 q 171 577 162 577 q 142 577 142 600 q 142 645 184 668 q 214 685 296 685 l 410 685 l 429 685 l 522 685 l 558 685 q 606 685 606 668 l 606 655 q 606 636 378 367 q 149 98 149 78 q 149 59 298 59 q 362 59 398 67 q 433 75 470 94 q 508 113 512 113 q 530 113 530 90 z"},"x":{"x_min":0,"x_max":489,"ha":489,"o":"m 347 124 q 362 100 387 84 q 411 68 411 52 q 411 37 393 25 q 360 6 333 6 q 306 6 291 26 q 285 34 259 94 q 233 154 233 154 q 221 154 167 92 q 151 75 138 58 l 125 41 q 112 23 105 17 q 87 1 53 1 q 20 1 20 17 q 20 37 69 65 q 100 83 139 129 q 209 214 209 254 q 209 293 158 362 q 149 375 129 393 q 109 411 109 424 q 109 436 117 442 q 140 458 175 458 q 209 458 222 443 q 235 429 258 376 q 280 324 287 324 q 292 324 336 377 q 380 430 394 442 q 408 455 439 455 q 471 455 471 440 q 471 422 431 400 q 391 378 367 348 q 299 267 299 233 q 299 200 347 124 z"},")":{"x_min":0,"x_max":351,"ha":351,"o":"m -3 -161 q -16 -161 -16 -147 q -16 -140 21 -101 q 57 -62 93 -13 q 178 102 214 272 q 229 340 229 413 q 229 528 195 611 q 162 694 162 703 q 162 719 185 719 q 197 719 211 702 q 245 659 272 579 q 298 499 298 403 l 298 393 q 298 223 208 60 q 161 -24 95 -92 q 29 -161 -3 -161 z"},"&":{"x_min":0,"x_max":668,"ha":668,"o":"m 264 51 l 278 51 q 305 51 342 74 q 380 98 380 119 q 380 127 359 158 q 339 188 336 194 q 333 200 324 213 q 315 226 289 276 q 262 327 253 327 l 250 327 q 220 327 183 281 q 146 236 146 190 l 146 168 q 146 117 185 84 q 224 51 264 51 z m 303 436 q 309 425 315 425 q 347 425 389 479 q 432 534 432 571 l 432 585 q 432 605 418 618 q 405 632 388 632 l 379 632 q 342 632 313 595 q 285 558 285 518 l 285 499 q 286 491 286 478 q 286 465 303 436 z m 600 287 q 600 283 587 264 q 573 245 549 200 q 524 155 524 127 q 524 99 552 62 q 579 26 579 23 q 579 21 572 21 q 565 21 530 36 q 494 51 465 51 q 437 51 365 34 q 294 17 249 17 l 235 17 q 169 17 124 63 q 79 110 79 179 q 79 229 102 264 q 125 299 149 320 q 172 340 192 354 l 229 380 q 242 394 242 422 q 242 424 235 460 q 228 497 228 521 q 228 581 260 625 q 292 669 342 669 l 354 669 q 400 669 433 631 q 465 593 465 538 q 465 482 427 433 q 388 383 388 343 q 388 254 463 254 q 467 254 506 280 q 546 307 573 307 q 600 307 600 294 z"},"_":{"x_min":0,"x_max":527,"ha":527,"o":"m 476 -125 l 37 -125 q -28 -125 -28 -115 l -28 -104 q -28 -85 -25 -79 q -22 -72 3 -72 l 396 -72 q 502 -72 502 -83 l 502 -88 l 501 -93 q 501 -125 476 -125 z"},"v":{"x_min":0,"x_max":484,"ha":484,"o":"m 69 419 q 69 457 136 457 q 168 457 176 421 q 189 363 198 230 q 207 98 217 98 q 220 98 232 111 q 293 174 343 266 q 393 358 398 406 q 402 433 407 441 q 420 464 457 464 q 483 464 483 439 l 483 432 q 483 404 460 370 l 456 361 q 444 342 440 333 l 425 302 q 347 146 250 45 q 215 9 187 9 q 160 9 152 40 q 144 71 138 160 q 133 250 121 303 q 109 357 99 371 q 69 412 69 413 z"},"O":{"x_min":0,"x_max":723,"ha":723,"o":"m 606 457 l 606 473 q 606 548 571 593 q 535 637 479 637 l 463 637 q 422 637 371 604 q 270 538 221 386 q 195 306 195 240 l 195 215 q 195 145 230 99 q 266 53 327 53 l 334 53 l 342 53 q 343 53 344 53 q 391 53 438 90 q 534 162 580 302 q 606 385 606 457 z m 694 462 q 694 378 659 287 q 624 196 566 130 q 449 -2 308 -2 l 297 -2 q 209 -2 153 67 q 133 92 119 133 q 106 174 106 223 l 106 233 q 106 310 137 394 q 168 479 223 548 q 277 617 349 656 q 420 696 496 696 q 639 696 683 552 q 694 513 694 462 z"},"(":{"x_min":0,"x_max":351,"ha":351,"o":"m 156 143 q 156 28 189 -54 q 223 -136 223 -142 q 223 -161 202 -161 q 167 -161 127 -58 q 86 44 86 141 l 86 173 q 86 332 174 495 q 220 581 288 650 q 355 720 385 720 q 400 720 400 710 q 400 700 364 661 q 328 622 290 571 q 252 520 217 438 q 156 299 156 143 z"},"C":{"x_min":0,"x_max":641,"ha":641,"o":"m 611 532 q 605 532 579 564 q 554 596 524 613 q 494 630 439 630 q 325 630 245 521 q 208 472 184 404 q 160 336 160 273 q 160 161 216 104 q 265 53 353 53 q 407 53 483 95 q 560 136 563 136 q 580 137 580 120 q 580 72 478 24 q 413 -6 322 -6 q 268 -6 220 15 q 75 79 75 271 q 75 338 103 416 q 130 494 184 559 q 238 623 307 656 q 375 688 443 688 l 458 688 q 505 688 562 670 q 618 653 624 649 q 649 633 649 600 q 649 566 638 549 q 626 532 611 532 z"},"W":{"x_min":0,"x_max":904,"ha":904,"o":"m 958 646 q 958 612 678 100 q 639 28 602 28 q 576 28 562 90 q 555 122 538 288 q 521 454 515 479 l 509 496 q 503 496 407 321 q 312 146 288 109 q 250 51 221 51 l 208 58 q 190 74 185 108 q 180 142 170 320 q 161 497 158 517 q 155 537 150 553 l 142 572 q 130 597 130 606 l 130 623 q 130 633 146 647 q 162 661 188 661 q 214 661 232 652 q 249 643 249 613 l 243 576 q 242 563 242 480 q 242 397 250 301 q 258 206 262 197 l 268 190 q 281 190 375 364 q 397 406 446 506 q 495 606 505 621 q 529 653 564 653 q 586 653 595 600 q 604 546 616 356 q 627 166 632 166 q 652 166 766 413 q 823 536 833 585 q 844 634 846 640 q 865 677 911 677 q 958 677 958 646 z"},"A":{"x_min":0,"x_max":645,"ha":645,"o":"m 419 583 q 417 583 375 500 q 334 417 324 400 q 313 383 308 371 q 302 359 279 323 q 255 287 255 287 q 255 281 324 281 l 362 280 l 378 280 q 386 281 390 281 q 438 281 438 309 l 438 322 l 438 331 l 432 432 q 432 583 419 583 z m 79 23 q 59 23 42 40 q 25 57 25 72 q 25 86 44 105 q 109 170 208 351 q 308 531 368 618 q 401 666 447 666 q 475 666 488 609 q 493 591 510 478 q 526 365 530 335 q 534 305 538 282 q 542 259 547 214 q 552 169 555 154 q 559 138 572 120 q 585 103 585 87 q 585 63 546 42 q 531 33 490 33 q 450 33 450 57 q 450 58 455 81 q 460 104 460 151 q 460 198 442 221 q 423 245 368 245 q 232 245 203 216 q 181 195 153 137 q 125 79 125 44 q 125 23 89 23 z"},"f":{"x_min":0,"x_max":324,"ha":324,"o":"m 452 693 q 452 678 441 668 q 430 657 421 657 q 413 657 393 663 q 373 668 358 668 q 320 668 287 622 q 253 576 253 516 q 253 489 285 473 q 329 452 329 444 q 329 439 274 407 q 242 389 225 354 q 208 320 170 170 q 132 20 113 -23 q 94 -65 67 -92 q 41 -119 16 -119 q -24 -119 -24 -104 l -24 -97 q -24 -86 -6 -70 q 13 -54 22 -43 q 49 -9 69 53 q 127 230 127 351 q 127 359 123 383 q 118 406 118 422 l 112 451 q 112 453 152 492 q 168 509 195 573 q 259 725 393 725 q 452 725 452 693 z"},"Q":{"x_min":0,"x_max":724,"ha":724,"o":"m 194 257 l 194 226 q 194 158 235 109 q 275 61 331 61 q 364 61 385 79 q 395 87 414 121 q 433 154 447 167 q 509 220 528 250 q 547 280 562 336 q 577 392 577 437 l 577 462 q 577 531 543 572 q 510 613 464 613 l 449 613 q 409 613 364 586 q 276 532 229 410 q 194 323 194 257 z m 429 -83 q 238 -6 203 32 q 188 49 176 93 q 151 190 151 278 l 151 292 q 151 467 219 561 q 267 626 328 662 q 363 683 423 683 l 434 683 q 526 683 593 611 q 621 582 638 534 q 655 487 655 440 l 655 415 q 655 331 607 230 q 593 198 543 124 q 493 49 493 39 q 493 12 537 -25 q 582 -62 607 -62 l 636 -58 q 636 -64 623 -74 q 584 -100 527 -100 q 469 -100 429 -83 z"},"w":{"x_min":0,"x_max":711,"ha":711,"o":"m 680 455 q 697 455 697 427 q 697 400 684 375 q 672 350 638 273 q 604 195 569 131 q 533 67 512 43 q 492 19 466 19 q 439 19 424 57 q 408 96 391 198 q 374 300 368 300 q 362 300 310 216 q 258 132 223 87 q 188 42 166 42 q 143 42 134 72 q 131 82 125 156 q 118 230 98 315 q 79 400 79 417 q 79 433 91 446 q 102 459 129 459 q 156 459 168 442 q 180 425 180 384 l 179 368 l 178 351 q 177 315 177 295 q 177 145 193 119 l 199 114 q 220 114 287 244 q 319 306 342 357 q 364 408 369 417 q 386 447 405 447 q 436 447 443 414 q 447 393 453 252 q 458 112 476 112 q 498 112 570 250 q 594 296 617 364 q 641 432 646 438 q 659 455 680 455 z"},"-":{"x_min":0,"x_max":353,"ha":353,"o":"m 319 273 q 319 250 306 237 q 300 231 274 231 l 69 231 q 61 231 61 237 l 61 242 l 61 244 q 61 284 82 290 q 90 292 188 292 l 309 292 q 320 292 320 283 l 320 281 q 319 276 319 273 z"},"E":{"x_min":0,"x_max":582,"ha":582,"o":"m 327 1 l 268 1 q 176 1 104 14 q 52 24 52 49 q 52 67 74 93 q 96 119 104 141 q 134 215 166 338 q 198 461 198 544 q 198 571 195 582 q 191 593 182 608 q 172 624 172 625 q 172 647 200 653 q 346 683 502 683 q 533 683 551 671 q 568 660 568 626 q 568 592 551 592 q 543 592 528 601 q 513 610 490 618 q 467 627 394 627 q 344 627 321 597 q 299 567 277 515 q 256 462 256 450 q 256 438 266 431 q 289 414 342 414 q 357 414 381 420 q 405 426 421 426 q 436 426 450 413 q 464 399 464 367 q 464 335 446 315 q 427 296 402 296 q 401 296 371 306 q 341 315 298 315 q 235 315 212 275 q 184 226 184 136 q 184 90 205 74 q 226 58 268 58 q 345 58 398 72 q 414 76 447 90 q 479 104 493 104 q 506 104 506 85 q 506 67 492 45 q 478 23 453 12 q 428 1 327 1 z"},"s":{"x_min":0,"x_max":416,"ha":416,"o":"m 361 373 q 355 373 323 400 q 291 427 251 427 q 211 427 186 407 q 161 387 161 357 q 161 326 190 303 q 197 297 252 265 q 308 233 330 207 q 353 182 353 129 q 353 77 302 35 q 251 -7 180 -7 q 108 -7 57 21 q 22 39 22 68 q 22 113 53 113 q 64 113 87 89 q 109 65 116 62 q 142 44 184 44 q 227 44 255 66 q 284 88 284 119 q 284 150 262 172 q 251 183 191 219 q 132 254 113 280 q 94 307 94 353 q 94 399 142 439 q 189 479 256 479 q 323 479 358 459 q 393 439 393 416 q 393 373 361 373 z"},">":{"x_min":0,"x_max":577,"ha":577,"o":"m 528 291 l 528 283 q 528 257 508 246 l 446 215 q 420 203 406 196 q 393 189 375 180 l 330 159 q 304 146 277 132 q 250 119 241 115 l 214 102 q 169 81 133 61 q 97 41 89 41 q 82 41 82 60 q 82 92 119 116 q 128 122 285 198 q 442 274 442 276 q 442 290 308 357 q 173 424 140 446 q 106 468 106 500 q 106 519 120 519 q 121 519 166 495 q 211 472 246 454 q 280 437 326 413 q 372 389 450 349 q 528 309 528 291 z"},"l":{"x_min":0,"x_max":273,"ha":273,"o":"m 222 713 l 237 713 q 265 713 265 684 l 265 677 q 265 670 243 580 q 221 490 189 332 q 157 175 157 139 q 157 103 176 80 q 194 58 194 52 q 194 34 169 21 q 144 7 115 7 l 109 7 q 96 7 81 22 q 66 37 66 62 q 66 86 121 347 q 176 608 176 622 q 176 636 167 654 q 158 672 158 676 q 158 695 172 704 q 186 713 222 713 z"},"8":{"x_min":0,"x_max":544,"ha":544,"o":"m 231 58 l 245 58 q 304 58 353 103 q 402 149 402 208 l 402 220 q 402 259 368 290 q 334 321 300 321 l 283 321 q 274 321 244 305 q 213 289 178 247 q 143 205 143 151 l 143 143 q 143 104 168 81 q 194 58 231 58 z m 455 550 l 455 561 q 455 588 434 609 q 414 629 379 629 l 367 629 q 312 629 273 590 q 233 550 233 506 l 233 489 q 233 461 261 433 q 290 405 325 405 l 329 405 q 367 405 411 454 q 455 502 455 550 z m 396 690 q 452 690 487 655 q 521 621 521 569 q 521 466 413 392 q 393 378 393 372 q 393 366 418 342 q 444 318 458 292 q 472 266 472 227 q 472 188 454 145 q 437 101 399 66 q 361 31 319 13 q 277 -4 239 -4 l 218 -4 q 162 -4 119 33 q 76 70 76 128 l 76 139 q 76 197 115 256 q 136 287 159 306 q 182 325 206 341 q 229 357 229 363 q 229 368 214 384 q 164 436 164 488 q 164 520 179 556 q 194 593 228 625 q 261 657 301 674 q 341 690 375 690 z"},"\\":{"x_min":0,"x_max":434,"ha":434,"o":"m 357 -70 l 350 -70 q 327 -70 310 -20 q 309 -17 300 14 l 293 40 l 289 57 q 282 80 269 122 q 255 164 241 223 q 226 282 165 490 q 104 699 104 709 q 104 720 126 720 l 134 720 q 156 720 174 668 q 220 531 262 366 q 304 202 342 81 q 380 -41 380 -60 q 380 -70 357 -70 z"},"e":{"x_min":0,"x_max":473,"ha":473,"o":"m 304 420 q 259 420 205 372 q 152 323 152 288 q 152 275 167 275 l 177 275 l 197 277 q 267 277 360 311 q 384 320 384 351 l 384 362 q 384 382 370 400 q 355 419 327 419 l 321 420 z m 415 96 q 415 68 347 34 q 279 0 229 0 l 218 0 q 147 0 101 46 q 56 92 56 166 l 56 186 q 56 238 84 294 q 140 403 242 449 q 299 474 347 474 q 396 474 424 448 q 452 422 452 380 l 452 372 q 452 345 440 317 q 430 290 409 276 q 375 254 224 228 q 168 218 159 214 q 133 204 133 161 q 133 119 162 90 q 192 60 244 60 q 274 60 320 80 q 327 83 357 99 q 387 115 397 115 q 415 115 415 96 z"},"b":{"x_min":0,"x_max":525,"ha":525,"o":"m 218 52 l 228 52 q 288 52 346 132 q 375 172 392 228 q 410 284 410 323 l 410 338 q 410 376 395 398 q 379 419 354 419 l 350 419 l 345 419 q 320 419 285 394 q 213 343 178 222 q 162 164 162 136 l 161 126 l 161 112 q 161 87 177 70 q 192 52 218 52 z m 470 302 l 470 290 q 470 235 449 181 q 428 127 395 84 q 333 4 243 4 l 232 4 q 204 4 170 17 q 136 29 132 29 q 128 29 118 24 q 108 20 100 20 q 72 20 72 57 l 72 65 q 72 73 91 147 q 110 221 148 403 q 186 585 186 599 q 186 612 179 631 q 171 650 171 663 q 171 676 182 688 q 193 700 222 700 q 261 700 261 668 q 261 644 240 563 q 218 482 218 462 q 218 442 263 442 q 264 442 290 445 q 315 449 335 449 q 396 449 433 407 q 470 365 470 302 z"},"%":{"x_min":0,"x_max":773,"ha":773,"o":"m 554 41 l 563 41 q 597 41 623 85 q 661 150 661 198 l 661 202 l 662 205 l 662 218 l 662 221 q 662 255 649 270 q 637 284 624 284 l 615 284 q 580 284 548 229 q 516 174 516 111 l 516 104 q 516 68 529 54 q 542 41 554 41 z m 222 395 l 233 395 q 266 395 298 450 q 331 505 331 567 l 331 577 q 329 586 329 599 q 329 612 316 625 q 304 638 289 638 l 286 638 l 284 637 q 248 637 217 584 q 186 530 186 484 l 184 468 l 184 452 q 185 446 185 435 q 185 425 197 410 q 208 395 222 395 z m 551 -6 l 537 -6 q 502 -6 479 21 q 455 49 455 90 l 455 110 q 455 143 471 188 q 502 278 575 317 q 603 332 632 332 l 637 332 q 673 332 698 305 q 723 278 723 235 l 723 215 q 723 177 705 132 q 670 43 604 8 q 576 -6 551 -6 z m 697 681 q 713 681 713 673 q 713 665 218 41 q 182 -5 158 -5 q 134 -5 134 3 q 134 12 617 621 q 665 681 689 681 z m 223 347 l 204 347 q 172 347 147 374 q 123 401 123 444 l 123 465 q 123 489 136 533 q 149 577 178 614 q 232 685 301 685 l 306 685 q 344 685 367 657 q 391 629 391 583 l 391 572 q 391 495 340 423 q 317 390 284 368 q 251 347 223 347 z"},"m":{"x_min":0,"x_max":793,"ha":793,"o":"m 686 42 q 662 42 648 74 q 634 106 634 138 q 634 169 640 218 q 647 267 647 296 q 647 325 629 354 q 610 382 577 382 q 543 382 508 327 q 462 255 432 144 q 418 93 408 72 q 390 35 354 35 q 318 35 318 57 q 318 75 342 199 q 366 326 366 348 q 366 393 314 393 q 288 393 253 363 q 219 333 201 306 q 184 278 146 165 q 107 52 99 52 q 97 52 92 59 q 76 81 76 118 q 76 125 87 184 q 97 243 99 263 q 101 284 104 296 q 106 308 110 329 q 113 350 120 373 q 128 396 147 413 q 167 430 178 430 q 189 430 203 408 q 216 386 221 386 q 230 386 277 411 q 323 436 363 436 q 404 436 421 426 q 439 416 453 395 q 466 375 475 375 q 483 375 498 385 l 511 395 q 582 447 628 447 q 675 447 700 419 q 726 392 726 345 l 726 326 q 726 312 710 217 q 695 121 695 66 l 695 55 l 696 48 q 696 42 686 42 z"},"#":{"x_min":0,"x_max":583,"ha":583,"o":"m 411 425 q 411 431 373 431 l 368 431 l 359 431 l 324 427 q 296 427 289 410 q 238 297 238 265 q 238 263 242 263 l 245 263 l 247 263 l 263 265 q 283 268 288 268 l 310 271 l 321 273 l 331 274 q 354 274 364 294 q 411 398 411 425 z m 498 517 q 498 495 534 486 q 570 477 570 464 q 570 445 547 436 q 541 433 505 428 q 470 424 461 412 q 457 406 441 354 q 426 301 426 288 q 426 277 462 273 q 499 268 504 264 q 509 261 509 245 q 509 224 469 216 q 412 205 401 193 q 390 181 368 115 q 347 48 342 39 q 331 17 310 17 q 290 17 290 27 q 290 37 312 109 q 334 181 334 190 q 334 199 324 203 q 314 207 274 207 q 233 207 224 193 q 223 191 200 118 q 177 45 167 29 q 158 13 138 13 q 118 13 118 23 q 118 27 138 91 q 158 155 158 180 q 158 198 125 206 q 91 213 91 235 q 91 256 131 265 q 188 276 195 286 q 202 296 216 342 q 229 387 229 398 q 229 418 189 425 q 149 431 149 443 q 149 467 165 476 q 171 479 210 485 q 250 491 260 502 q 269 514 291 585 q 313 655 322 668 q 332 680 358 680 q 369 680 369 664 q 369 663 362 640 q 355 617 350 598 q 344 580 334 549 q 325 518 325 508 q 325 499 334 494 q 343 489 410 489 q 430 489 439 512 q 441 518 457 578 q 473 637 485 655 q 497 673 524 673 q 538 673 538 660 l 519 599 q 498 530 498 517 z"},",":{"x_min":0,"x_max":277,"ha":277,"o":"m 168 83 l 168 76 q 167 66 167 59 q 167 5 113 -66 q 59 -138 26 -138 l 23 -138 q 11 -138 11 -126 l 11 -122 q 11 -116 29 -99 q 46 -83 64 -56 q 83 -29 83 -17 q 83 -5 77 12 q 72 30 72 52 q 72 73 85 92 q 99 110 122 110 l 128 111 l 132 111 l 135 111 q 168 111 168 83 z"},"n":{"x_min":0,"x_max":547,"ha":547,"o":"m 200 417 q 212 378 214 378 q 218 378 251 404 q 284 430 316 445 q 348 460 389 460 q 430 460 457 432 q 484 404 484 351 q 484 322 466 229 q 447 136 447 111 q 447 86 453 77 q 459 69 466 63 q 473 57 473 54 q 473 52 458 43 q 443 34 425 34 q 377 34 377 127 q 377 142 388 217 q 398 292 398 317 q 398 409 333 409 q 303 408 270 381 q 203 325 167 209 q 166 205 151 145 q 136 86 133 78 q 116 31 91 31 l 84 31 q 58 31 58 66 l 58 77 q 58 93 70 136 l 74 147 l 78 159 q 107 250 107 305 l 101 344 q 101 384 122 412 q 144 440 169 440 q 193 440 200 417 z"},"h":{"x_min":0,"x_max":539,"ha":539,"o":"m 225 704 l 236 704 q 270 704 270 669 q 270 635 246 548 q 223 462 223 458 q 223 438 241 438 l 290 454 q 323 465 354 465 q 400 465 427 433 q 453 401 453 357 l 453 341 q 453 321 443 263 l 437 230 q 414 106 414 54 q 414 34 393 34 q 372 34 361 62 q 354 79 354 109 q 354 139 371 215 q 388 291 388 313 q 388 393 324 393 q 311 393 289 379 q 250 355 225 310 q 186 241 161 122 q 150 71 141 47 q 124 7 101 7 q 69 7 69 51 q 69 83 91 156 q 112 229 147 386 q 181 544 181 590 l 172 632 q 172 662 189 683 q 206 704 225 704 z"},"z":{"x_min":0,"x_max":461,"ha":461,"o":"m 445 450 q 445 419 294 260 q 143 101 143 82 q 143 67 159 62 q 187 51 240 51 q 293 51 337 70 q 381 88 383 88 q 407 88 407 58 q 407 28 376 11 q 345 -6 291 -6 l 265 -6 q 240 -6 185 0 q 130 6 91 6 l 42 4 q 25 4 25 27 q 25 62 179 220 q 333 378 333 394 q 333 410 237 410 q 205 410 163 394 q 120 378 120 378 q 96 378 96 398 q 96 436 120 452 q 145 468 210 468 l 223 468 l 371 462 l 429 465 q 445 465 445 450 z"},"B":{"x_min":0,"x_max":603,"ha":603,"o":"m 461 230 l 461 239 q 461 276 432 297 q 402 317 348 317 l 306 317 l 301 317 l 271 315 q 237 315 227 293 q 217 271 210 244 q 203 217 198 198 q 193 178 181 141 q 168 105 168 81 q 168 68 209 68 l 214 68 l 219 68 l 234 69 q 239 69 245 69 q 400 69 446 167 q 461 200 461 230 z m 489 540 l 489 556 q 489 583 465 600 q 441 618 398 618 l 366 618 l 353 617 l 335 616 q 299 616 286 590 q 279 570 275 556 l 271 541 l 268 529 l 265 521 l 264 517 l 262 509 l 261 505 l 256 489 q 236 425 236 407 l 236 401 q 236 395 245 395 l 264 395 q 425 395 472 481 q 489 513 489 540 z m 201 0 l 190 0 l 180 1 l 150 1 q 52 1 52 18 q 52 23 72 43 q 91 63 102 88 q 114 113 131 182 q 197 438 197 584 q 197 597 189 614 q 182 631 182 632 q 182 658 215 665 q 302 681 395 681 l 406 681 q 481 681 520 648 q 560 616 560 561 q 560 463 454 397 q 432 384 432 382 q 432 379 461 358 q 490 336 507 306 q 525 276 525 227 q 525 177 500 131 q 475 84 432 55 q 390 26 336 13 q 282 0 201 0 z"},"K":{"x_min":0,"x_max":642,"ha":642,"o":"m 75 33 l 75 47 q 75 50 95 79 q 114 108 125 152 q 137 195 154 299 q 172 402 188 474 q 205 546 205 567 q 205 587 194 610 q 183 632 183 633 q 183 654 204 661 q 217 666 257 666 q 297 666 316 647 q 322 641 322 630 q 322 619 307 594 q 292 569 277 520 q 262 470 262 427 q 262 411 276 411 q 311 411 438 535 q 474 571 486 591 q 499 611 508 630 q 517 650 535 663 q 552 676 597 676 q 641 676 641 657 q 641 653 562 584 q 369 417 369 364 q 369 333 456 172 q 482 124 520 74 q 558 24 558 22 q 558 2 520 2 l 504 2 q 460 2 438 37 q 433 45 425 68 l 419 84 q 390 166 356 222 q 309 300 282 300 q 255 300 229 237 q 204 174 204 121 l 208 71 q 208 43 187 26 q 165 9 120 9 q 75 9 75 33 z"},"R":{"x_min":0,"x_max":624,"ha":624,"o":"m 243 362 l 250 362 l 254 363 l 271 364 q 275 364 292 364 q 310 364 359 378 q 409 392 436 413 q 463 435 481 467 q 500 499 500 535 l 500 540 l 499 544 q 499 576 476 595 q 453 614 417 614 l 384 614 q 311 614 293 586 q 288 579 260 483 q 232 387 232 379 l 232 373 q 232 362 243 362 z m 193 654 q 193 685 361 685 l 389 685 q 509 685 549 611 q 564 582 564 543 l 564 528 q 564 430 461 358 q 420 329 420 299 q 420 249 458 148 q 474 109 490 89 q 525 50 525 31 q 525 6 488 6 l 476 6 q 448 6 431 36 q 419 55 391 139 q 362 223 343 250 q 315 290 277 290 q 238 290 217 239 q 205 209 205 135 q 205 117 209 93 q 214 68 214 64 q 214 42 191 29 q 167 15 136 15 q 105 15 93 22 q 81 29 81 48 q 81 67 109 105 q 125 126 134 169 q 206 508 206 600 q 206 616 200 632 q 193 647 193 654 z"},"T":{"x_min":0,"x_max":573,"ha":573,"o":"m 317 570 q 317 589 307 600 q 297 611 262 611 q 227 611 188 585 q 150 559 142 559 q 134 559 134 570 l 134 581 q 134 609 147 637 q 161 666 180 676 q 200 686 334 686 l 361 687 l 558 689 q 606 689 606 662 l 606 651 q 606 618 597 602 q 588 585 578 585 q 568 585 553 596 q 539 606 537 607 q 517 618 486 618 q 456 618 439 609 q 423 600 413 572 q 402 543 359 347 q 316 151 316 126 q 316 101 327 81 q 338 61 338 51 q 338 30 312 16 q 286 2 248 2 l 221 2 q 176 2 176 39 q 176 48 203 79 q 230 110 241 154 q 317 447 317 570 z"},"P":{"x_min":0,"x_max":574,"ha":574,"o":"m 243 346 l 261 346 q 368 346 435 399 q 461 420 478 457 q 495 493 495 527 l 495 541 q 495 578 469 597 q 444 617 400 617 l 391 617 l 386 616 l 376 616 q 366 615 361 615 q 308 615 292 590 q 290 587 257 476 q 224 364 224 357 l 224 354 q 224 346 243 346 z m 197 71 q 197 39 146 15 q 125 4 84 4 q 42 4 42 29 q 42 54 64 85 q 86 116 95 147 q 104 178 115 227 q 125 277 144 349 q 162 421 167 444 q 172 467 184 514 q 195 562 195 579 q 195 596 190 612 q 185 628 185 635 q 185 653 220 661 q 300 679 397 679 l 430 679 q 498 679 536 641 q 574 603 574 552 q 574 451 509 384 q 444 317 332 300 q 266 290 251 279 q 220 257 200 219 q 180 181 180 154 q 180 126 188 103 q 197 80 197 71 z"},"|":{"x_min":0,"x_max":360,"ha":360,"o":"m 198 759 l 215 759 q 238 759 238 732 l 238 702 l 238 692 l 235 569 l 235 549 l 229 285 q 229 -67 219 -171 q 216 -195 192 -195 l 184 -195 q 161 -195 161 -167 l 161 -138 l 161 -127 l 162 -86 l 162 -66 l 166 97 l 166 117 l 170 279 q 170 636 180 736 q 183 759 198 759 z"},"t":{"x_min":0,"x_max":337,"ha":337,"o":"m 249 21 q 214 3 180 3 l 171 3 q 131 3 107 25 q 83 46 83 89 l 83 109 q 83 125 108 243 q 133 360 133 389 q 133 405 112 415 q 92 425 92 441 q 92 457 123 468 q 155 479 159 485 q 164 492 173 525 q 183 559 188 569 q 205 602 230 602 q 254 602 254 582 l 249 523 q 249 498 262 487 q 275 477 304 471 q 332 466 332 452 q 332 429 281 416 q 231 402 219 381 q 203 351 182 256 q 161 161 161 129 q 161 96 177 84 q 192 72 227 72 l 254 74 q 271 74 271 53 q 271 32 249 21 z"},"M":{"x_min":0,"x_max":848,"ha":848,"o":"m 184 643 q 184 668 222 668 q 295 668 322 600 q 333 571 348 496 q 362 420 370 385 q 412 195 424 195 l 438 211 q 457 237 520 338 q 584 438 625 510 q 667 581 690 607 q 712 634 747 651 q 782 668 812 668 l 830 668 l 836 660 q 836 653 825 630 q 813 607 807 578 q 801 548 793 507 l 789 479 q 783 447 756 303 q 729 159 729 132 q 729 104 736 88 q 756 44 756 40 q 756 18 709 18 l 689 18 q 661 18 642 39 q 632 49 632 67 l 636 83 l 644 102 q 652 125 683 310 q 713 495 713 512 q 713 528 709 528 q 699 528 584 338 q 470 148 440 104 q 411 61 390 61 q 369 61 360 82 l 354 107 q 351 120 340 189 q 330 257 317 330 q 286 517 267 517 q 259 517 249 490 q 238 462 208 352 q 178 242 162 188 q 146 134 146 118 l 147 100 l 149 83 q 149 58 128 42 q 106 26 74 26 q 42 26 42 48 q 42 58 65 91 q 88 125 100 167 q 125 255 159 416 q 193 576 193 592 l 190 611 q 184 640 184 643 z"},"g":{"x_min":0,"x_max":561,"ha":561,"o":"m 402 345 l 402 366 q 402 396 384 416 q 366 436 336 436 l 317 436 q 291 436 261 416 q 195 374 162 273 q 146 226 146 193 l 145 182 l 145 171 l 146 166 q 146 127 163 100 q 181 73 208 73 l 227 73 q 250 73 285 95 q 353 137 387 256 q 402 311 402 345 z m 475 478 q 505 478 505 438 q 505 410 489 370 l 479 345 q 467 319 457 283 q 447 246 424 91 q 400 -65 385 -93 q 353 -156 293 -190 q 233 -225 163 -225 l 148 -225 q 94 -225 46 -199 q -3 -173 -3 -148 q -3 -109 23 -109 q 34 -109 80 -135 q 126 -160 167 -160 q 284 -160 334 -35 q 351 6 351 21 l 348 24 q 344 24 333 20 q 321 15 298 6 q 275 -2 241 -2 q 171 -2 129 51 q 86 104 86 201 q 86 248 102 303 q 118 359 146 399 q 175 438 222 467 q 270 495 314 495 l 327 495 q 360 495 392 475 q 424 455 428 455 q 432 455 445 467 q 458 478 475 478 z"},"j":{"x_min":0,"x_max":273,"ha":273,"o":"m 227 420 l 227 405 q 227 371 187 176 q 146 -19 120 -79 q 93 -139 48 -176 q 3 -213 -47 -213 l -55 -213 q -95 -213 -95 -194 q -95 -161 -36 -150 q 22 -140 52 -69 q 62 -43 101 125 q 140 292 140 351 q 140 377 128 390 q 106 412 106 423 q 106 459 181 459 q 201 459 214 448 q 227 436 227 420 z m 188 604 l 188 612 l 189 618 l 189 622 q 191 629 191 638 q 191 646 204 663 q 217 679 234 679 l 236 680 l 237 680 l 253 682 q 285 682 285 656 l 285 653 l 284 651 q 284 649 284 646 l 282 635 q 281 632 281 630 q 281 610 267 596 q 253 582 239 582 q 236 581 234 581 l 226 580 l 215 580 l 205 582 q 188 582 188 604 z"},"i":{"x_min":0,"x_max":276,"ha":276,"o":"m 189 469 l 200 469 q 223 469 223 438 l 223 432 q 223 418 197 303 q 172 189 172 139 q 172 118 188 98 q 204 79 204 70 q 204 44 176 26 q 147 8 110 8 l 105 8 q 97 8 85 21 q 73 33 73 56 l 73 68 q 73 79 81 116 q 90 153 93 167 l 96 180 q 100 195 116 266 q 133 336 133 363 q 133 390 121 401 q 108 411 108 428 q 108 469 189 469 z m 259 682 q 277 682 277 658 l 277 653 l 276 652 l 275 639 q 274 637 274 635 q 274 616 260 599 q 246 582 221 582 l 206 582 q 181 582 181 606 l 181 614 l 182 621 l 182 624 q 184 630 184 634 q 184 653 198 667 q 212 682 228 682 q 231 683 233 683 l 242 684 l 250 684 q 254 682 259 682 z"},"y":{"x_min":0,"x_max":484,"ha":484,"o":"m 231 120 q 258 120 313 229 q 368 337 378 388 q 389 438 393 444 q 404 461 425 461 l 435 461 q 457 461 457 441 q 457 401 417 327 q 408 309 396 281 q 384 253 381 248 l 338 155 q 292 57 235 -31 q 116 -215 26 -215 l 17 -215 q -9 -215 -9 -200 q -9 -175 47 -149 q 103 -124 141 -73 q 178 -21 178 39 q 178 45 153 176 q 127 307 114 349 q 101 391 101 406 q 101 420 117 435 q 134 450 159 450 q 189 450 218 239 q 221 218 224 169 q 227 120 231 120 z"},"@":{"x_min":0,"x_max":805,"ha":805,"o":"m 538 374 l 538 383 q 538 417 497 417 l 483 417 q 438 417 391 363 q 366 335 350 297 q 334 259 334 232 l 334 214 q 334 188 348 176 q 362 163 380 163 l 383 163 q 383 163 384 163 q 403 163 431 179 q 488 211 522 310 q 538 356 538 374 z m 782 404 q 782 345 762 297 q 719 190 643 156 q 616 144 587 144 q 557 144 540 157 l 527 170 q 515 186 512 186 q 509 186 471 164 q 434 142 413 142 q 364 142 330 176 q 296 209 296 278 q 297 306 312 338 q 354 431 443 431 l 463 428 l 482 425 l 501 421 l 519 424 l 535 431 l 551 435 q 578 435 578 411 l 576 392 l 567 348 q 557 294 557 259 q 557 224 570 210 l 584 202 q 637 202 682 262 q 727 322 727 381 q 727 440 713 481 q 700 522 662 557 q 592 620 488 620 q 340 620 243 510 q 146 400 146 253 q 146 197 166 145 q 227 -21 442 -21 q 442 -21 443 -21 q 486 -21 548 0 q 588 13 603 14 q 611 14 611 9 q 611 -9 542 -32 q 473 -55 411 -55 l 383 -55 q 332 -55 272 -32 q 212 -10 172 33 q 87 125 87 259 q 87 342 121 421 q 155 500 212 555 q 333 672 478 672 l 479 672 q 624 672 703 598 q 782 523 782 404 z"},".":{"x_min":0,"x_max":276,"ha":276,"o":"m 131 108 q 167 108 167 77 l 167 66 l 165 48 q 165 32 150 14 q 135 -3 114 -3 l 103 -5 l 95 -5 l 83 -3 q 62 -3 62 15 q 61 18 61 20 l 60 28 l 60 36 l 61 45 l 63 56 q 63 72 82 94 q 92 107 113 107 l 125 108 z"},"p":{"x_min":0,"x_max":536,"ha":536,"o":"m 420 346 q 420 373 405 395 q 390 417 366 417 l 353 417 q 327 417 296 396 q 232 352 196 227 q 178 166 178 131 l 177 122 l 177 104 q 177 84 194 69 q 211 54 236 54 l 249 54 q 277 54 309 76 q 341 98 364 136 q 421 229 421 321 l 421 332 q 420 341 420 346 z m 208 450 q 213 450 222 443 q 230 436 242 436 q 253 436 282 452 q 311 469 345 469 q 411 469 452 426 q 494 383 494 311 l 494 299 q 494 298 494 298 q 494 256 467 195 q 409 62 299 22 q 278 14 215 6 q 151 -1 138 -10 q 107 -31 107 -111 q 107 -154 95 -177 q 74 -217 44 -217 l 35 -217 q -5 -217 -5 -190 q -5 -179 9 -141 q 24 -104 33 -73 q 43 -43 92 136 q 140 315 140 347 l 132 411 q 132 422 149 436 q 166 450 208 450 z"},"X":{"x_min":0,"x_max":626,"ha":626,"o":"m 596 684 q 635 684 635 670 l 635 662 q 635 654 598 618 q 560 583 513 524 q 397 380 397 357 q 397 311 468 144 q 484 104 508 83 q 531 61 531 42 q 531 22 502 12 q 474 1 426 1 q 378 1 378 33 l 381 43 l 386 54 q 389 63 389 80 q 389 125 334 254 q 325 277 320 277 q 301 277 234 183 q 166 88 166 62 l 167 51 l 168 40 q 168 0 81 0 q 33 0 33 21 q 33 28 97 88 q 120 109 170 174 q 295 332 295 358 q 295 394 227 547 q 213 576 191 602 q 169 627 169 637 q 169 657 189 669 q 210 680 275 680 q 313 680 313 655 q 313 652 307 637 q 301 623 301 612 q 301 585 351 460 q 361 435 366 435 q 384 435 465 543 q 508 601 508 626 l 505 646 q 505 684 596 684 z"},"*":{"x_min":0,"x_max":451,"ha":451,"o":"m 190 497 q 207 510 207 523 q 207 527 193 536 q 179 545 174 549 q 159 566 159 589 q 159 613 186 613 q 200 613 227 592 q 255 571 264 571 q 274 571 280 618 q 286 665 293 679 q 301 693 321 693 l 330 693 q 343 693 343 675 q 343 657 331 617 q 318 578 318 575 q 318 568 324 568 q 325 568 363 586 q 401 604 407 605 q 414 606 419 606 q 437 606 437 590 l 437 585 q 437 557 396 540 q 356 522 356 510 q 356 497 368 478 q 379 458 379 445 q 379 422 361 422 l 311 437 q 304 437 290 418 q 277 399 243 399 q 230 399 225 417 q 220 435 215 435 q 199 433 191 433 l 179 432 l 167 432 q 155 432 155 449 q 155 467 190 497 z"},"Y":{"x_min":0,"x_max":588,"ha":588,"o":"m 256 3 q 188 3 188 35 q 188 50 208 73 q 227 97 234 118 q 264 205 264 266 q 264 355 208 520 q 191 568 166 596 q 142 624 142 641 q 142 676 229 676 q 272 676 272 644 q 270 630 270 620 q 270 610 288 553 q 306 497 316 453 q 326 409 331 392 q 335 375 343 375 q 364 375 472 555 q 493 590 500 622 q 507 653 509 656 q 527 681 577 681 q 627 681 627 667 l 627 661 q 627 648 575 601 q 550 578 480 474 q 411 370 382 318 q 353 266 337 206 q 320 146 320 125 q 320 104 331 84 q 341 64 341 60 q 341 37 317 20 q 294 3 256 3 z"},"c":{"x_min":0,"x_max":454,"ha":454,"o":"m 399 89 q 399 63 335 30 q 271 -2 216 -2 l 206 -2 q 170 -2 139 12 q 108 26 89 49 q 48 98 48 175 q 48 227 67 279 q 86 332 121 375 q 156 417 205 444 q 253 470 301 470 l 311 470 q 363 470 403 454 q 442 438 442 415 l 442 408 q 442 392 430 380 q 418 369 408 369 q 398 369 381 381 q 364 393 356 397 q 329 414 295 414 q 225 414 171 336 q 125 271 125 174 q 125 116 157 85 q 189 54 243 54 q 273 54 302 69 q 330 83 348 93 q 372 107 384 107 q 399 107 399 89 z"},"!":{"x_min":0,"x_max":305,"ha":305,"o":"m 177 63 q 177 31 161 15 q 145 -1 127 -1 l 121 -2 l 117 -2 l 111 -3 l 110 -2 l 106 -2 l 95 0 q 76 0 76 16 q 75 19 75 20 l 74 28 l 74 35 l 75 37 l 76 50 q 77 52 77 53 q 77 70 91 87 q 105 104 125 104 l 136 105 l 143 105 l 155 104 q 175 104 175 85 l 177 76 z m 258 692 l 274 692 q 295 692 295 676 l 295 671 l 295 666 q 295 664 263 516 q 230 368 186 226 q 173 186 146 186 q 133 186 133 198 l 133 204 l 133 209 q 133 215 166 413 q 199 611 208 652 q 218 692 258 692 z"},"/":{"x_min":0,"x_max":409,"ha":409,"o":"m 445 723 q 464 723 464 716 q 464 709 446 676 q 166 147 56 -44 q 36 -80 10 -80 q -17 -80 -17 -72 q -17 -41 376 663 q 410 723 437 723 z"},"[":{"x_min":0,"x_max":350,"ha":350,"o":"m 229 -133 q 229 -157 190 -157 l 179 -157 l 157 -156 q 70 -156 59 -149 q 47 -142 47 -122 q 47 -102 120 255 q 193 611 205 655 q 218 698 232 706 q 246 713 273 713 q 301 713 336 715 l 381 717 q 406 717 406 710 q 406 684 381 674 q 375 672 341 667 q 307 663 293 655 q 279 646 267 611 q 255 576 192 273 q 128 -30 128 -58 q 128 -86 138 -93 q 148 -101 189 -109 q 229 -117 229 -133 z"},"6":{"x_min":0,"x_max":545,"ha":545,"o":"m 246 53 l 259 53 q 285 53 315 71 q 344 88 368 123 q 414 189 414 268 l 413 273 q 413 313 393 342 q 373 371 334 371 l 325 371 l 321 371 q 295 371 264 353 q 233 335 212 309 q 168 254 168 176 l 168 162 q 168 116 190 84 q 212 53 246 53 z m 208 404 q 208 393 225 393 q 228 393 255 402 q 283 411 315 411 q 347 411 380 397 q 413 382 437 356 q 484 304 484 215 q 484 125 424 61 q 399 35 365 19 q 331 4 297 4 l 273 4 q 240 4 203 21 q 132 56 102 146 q 87 191 87 246 l 87 257 q 87 330 118 406 q 148 483 199 541 q 250 600 312 632 q 374 665 430 665 q 485 665 513 648 q 525 641 525 630 q 525 618 501 618 l 446 622 q 416 622 375 606 q 335 591 299 559 q 263 526 236 481 q 208 436 208 404 z"},"r":{"x_min":0,"x_max":374,"ha":374,"o":"m 375 430 l 375 426 q 375 405 317 390 q 258 375 230 334 q 202 292 187 246 q 172 199 157 127 q 143 55 138 42 q 121 3 89 3 l 82 3 q 54 3 54 24 q 54 30 84 153 q 115 276 115 334 q 115 343 109 358 q 103 373 103 396 q 103 419 124 437 q 145 455 176 455 q 208 455 213 421 q 219 388 227 388 q 231 388 246 403 q 297 457 345 457 q 375 457 375 430 z"},"2":{"x_min":0,"x_max":534,"ha":534,"o":"m 41 28 q 41 61 90 113 q 140 165 238 246 q 336 327 380 381 q 424 436 424 488 q 424 540 396 568 q 367 597 323 597 q 278 597 253 582 q 228 567 198 537 q 167 506 154 506 q 130 506 130 519 q 130 540 149 568 q 168 597 207 621 q 267 660 337 660 q 408 660 455 620 q 503 580 503 519 l 503 504 q 503 432 439 356 q 406 315 281 215 q 156 114 156 86 q 156 71 231 71 q 306 71 358 80 q 411 89 415 89 q 439 89 439 66 q 439 28 404 13 q 383 4 307 4 l 228 4 l 133 6 q 41 6 41 28 z"},"{":{"x_min":0,"x_max":372,"ha":372,"o":"m 160 283 q 160 279 174 266 q 188 252 200 235 q 211 217 211 181 q 211 145 194 75 q 177 5 177 -35 q 177 -76 203 -98 q 250 -137 250 -152 q 250 -163 228 -163 q 174 -163 139 -132 q 104 -100 104 -40 q 104 -14 125 70 q 145 153 145 186 q 145 218 121 241 q 114 248 95 258 q 77 268 77 279 q 77 293 131 320 q 164 336 180 375 q 189 398 207 507 q 224 615 251 652 q 277 688 317 706 q 357 723 386 723 q 415 723 415 718 l 415 711 q 415 691 371 672 q 327 652 309 621 q 292 590 274 492 q 256 394 244 367 q 227 325 182 298 q 160 285 160 283 z"},"9":{"x_min":0,"x_max":546,"ha":546,"o":"m 439 492 l 439 516 q 439 564 416 595 q 393 625 360 625 l 347 625 q 324 625 297 610 q 269 596 244 562 q 196 496 196 421 l 196 401 q 196 354 220 330 q 245 305 277 305 l 286 305 l 291 306 q 311 306 342 321 q 373 337 406 378 q 439 419 439 492 z m 80 43 q 80 58 111 58 l 139 55 q 157 53 177 53 q 198 53 239 70 q 279 86 315 119 q 352 152 376 195 q 400 239 400 272 q 400 283 383 283 q 381 283 353 275 q 324 267 291 267 q 258 267 226 283 q 193 298 171 325 q 125 378 125 464 q 125 550 180 611 q 236 673 317 673 l 329 673 q 371 673 408 653 q 521 594 521 411 q 521 347 494 275 q 467 203 417 140 q 367 77 301 43 q 235 10 176 10 l 165 10 q 116 10 90 28 q 80 35 80 43 z"}," ":{"x_min":0,"x_max":321,"ha":321,"o":""},"I":{"x_min":0,"x_max":334,"ha":334,"o":"m 148 1 l 122 1 q 76 1 62 12 q 48 22 48 33 q 48 43 89 88 q 109 109 128 177 q 147 246 172 403 q 197 560 197 572 q 197 584 181 604 q 166 625 166 633 q 166 659 210 676 q 230 684 281 684 l 307 684 q 343 684 343 661 q 343 644 319 620 q 294 597 283 551 q 196 193 196 115 q 196 98 210 77 q 223 57 223 42 q 223 27 200 14 q 176 1 148 1 z"},"H":{"x_min":0,"x_max":721,"ha":721,"o":"m 101 14 l 83 14 q 47 14 47 29 q 47 49 73 78 q 100 107 108 142 q 117 177 151 359 q 185 542 185 555 q 185 569 175 590 q 166 611 166 613 q 166 631 192 643 q 219 654 272 654 q 325 654 325 625 l 321 613 l 314 603 l 307 590 q 298 574 283 516 q 269 457 269 426 q 269 395 287 383 q 306 371 418 371 q 530 371 552 389 q 565 400 581 453 q 597 505 597 539 q 597 573 594 587 l 586 615 q 586 647 622 663 q 657 679 714 679 q 748 679 748 662 q 748 651 722 622 q 696 593 680 535 q 665 478 630 310 q 595 143 595 130 q 595 117 603 95 q 611 74 611 62 q 611 51 595 40 q 580 30 535 30 q 452 30 452 66 l 456 77 l 469 103 q 477 119 497 192 q 517 266 517 297 q 517 329 500 338 q 483 347 409 347 q 335 347 264 329 q 241 323 229 313 q 217 302 206 268 q 176 172 176 117 q 176 103 180 85 q 185 67 185 65 q 185 48 160 31 q 136 14 101 14 z"},"4":{"x_min":0,"x_max":542,"ha":542,"o":"m 138 232 l 196 232 l 200 232 l 205 232 q 312 232 323 248 q 324 249 362 391 q 399 534 399 549 l 398 551 q 392 551 312 453 q 233 355 177 296 q 121 236 121 234 q 121 232 138 232 z m 336 0 l 318 0 q 291 0 282 12 q 273 23 273 44 q 273 65 281 83 q 288 102 288 104 q 288 134 241 153 q 206 168 153 168 q 100 168 85 177 q 70 187 70 207 l 70 214 q 70 239 100 277 q 112 295 145 333 q 177 370 185 379 l 207 405 q 222 423 229 432 q 236 440 252 459 q 268 477 321 540 q 373 603 405 634 q 436 666 458 666 l 466 666 q 488 666 488 643 q 488 620 453 475 q 417 331 417 296 q 417 262 433 248 q 460 222 460 212 q 460 177 423 155 q 385 133 385 111 l 386 104 l 386 96 l 387 79 q 387 45 372 23 q 356 0 336 0 z"},"~":{"x_min":0,"x_max":569,"ha":569,"o":"m 194 355 l 206 355 q 244 355 311 317 q 378 279 407 279 q 436 279 463 308 q 505 352 510 352 q 532 352 532 331 q 532 300 492 259 q 451 219 407 219 l 401 219 q 358 219 294 257 q 230 294 198 294 q 166 294 138 265 q 97 221 91 221 q 69 221 69 243 q 69 277 111 316 q 152 355 194 355 z"},"D":{"x_min":0,"x_max":698,"ha":698,"o":"m 577 425 l 577 451 q 577 453 577 454 q 577 496 563 531 q 526 630 414 630 l 397 630 q 327 630 313 602 q 313 601 284 466 q 256 331 222 211 q 188 92 188 86 l 188 80 q 188 62 254 62 l 262 62 q 396 62 481 161 q 527 213 552 287 q 577 361 577 425 z m 58 20 q 58 32 74 49 q 91 65 104 86 q 118 107 135 171 q 220 479 220 576 q 220 594 207 616 q 193 638 193 646 q 193 667 230 675 q 295 689 393 689 l 404 689 l 416 689 l 417 689 q 586 689 641 552 q 659 507 659 461 q 659 460 659 458 l 659 421 q 659 335 618 247 q 540 80 383 28 q 308 3 210 3 l 200 3 q 58 3 58 20 z"},"^":{"x_min":0,"x_max":548,"ha":548,"o":"m 506 327 q 506 322 490 322 l 482 322 q 454 322 435 352 q 416 383 366 493 q 316 603 309 603 q 302 603 241 494 q 179 385 157 354 q 135 323 95 323 q 83 323 83 328 q 83 333 108 373 q 133 413 200 530 q 267 647 279 664 q 291 680 316 680 l 324 680 q 342 680 366 631 q 506 341 506 327 z"},"0":{"x_min":0,"x_max":552,"ha":552,"o":"m 451 494 q 451 617 367 617 q 294 617 235 496 q 203 428 184 335 q 166 242 166 197 l 166 167 q 166 117 186 84 q 206 51 244 51 l 250 51 q 322 51 381 174 q 410 232 430 323 q 451 415 451 472 z m 374 674 l 391 674 q 453 674 490 625 q 526 575 526 487 l 526 468 q 526 386 499 292 q 445 107 344 32 q 292 -5 234 -5 l 226 -5 q 166 -5 128 44 q 89 94 89 183 l 89 203 q 89 204 89 206 q 89 288 116 377 q 171 560 268 633 q 323 674 374 674 z"},"F":{"x_min":0,"x_max":547,"ha":547,"o":"m 139 14 q 68 14 68 62 l 68 71 q 68 78 105 123 q 123 146 137 202 q 138 206 167 370 q 195 534 195 554 q 195 575 187 598 q 178 622 178 632 q 178 651 220 660 q 314 681 441 681 l 500 681 q 540 681 555 673 q 571 665 571 638 l 571 626 q 571 582 553 582 q 545 582 524 596 q 502 610 484 614 q 428 625 354 625 q 314 625 295 594 q 275 562 262 506 q 249 450 249 441 q 249 417 268 409 q 287 400 318 400 q 349 400 381 409 q 414 418 422 418 q 431 418 443 408 q 455 398 455 365 q 455 332 436 308 q 417 284 391 284 l 380 285 l 361 291 q 345 295 319 295 q 293 295 265 282 q 236 270 228 257 q 219 243 203 187 q 188 131 188 79 l 193 42 q 193 14 152 14 z"},"`":{"x_min":0,"x_max":396,"ha":396,"o":"m 324 573 l 324 567 q 324 559 311 559 l 308 559 q 304 560 302 560 q 278 560 222 625 q 166 689 166 694 l 166 698 q 166 713 195 713 l 199 713 q 229 713 249 691 q 324 603 324 573 z"},"k":{"x_min":0,"x_max":500,"ha":500,"o":"m 230 706 q 272 706 272 671 q 272 665 233 517 q 193 369 193 335 q 193 317 211 317 q 229 317 288 381 q 347 444 370 460 q 393 475 421 475 q 449 475 449 466 q 449 450 373 376 q 297 302 297 272 q 297 229 349 136 q 375 90 398 70 q 422 50 422 46 q 422 20 376 20 q 348 20 326 43 q 304 66 253 175 q 244 195 240 201 q 228 219 208 219 q 191 219 172 176 q 166 161 154 109 q 142 57 130 36 q 118 16 97 16 l 88 16 q 74 16 74 43 q 74 70 106 239 q 139 409 162 498 q 185 587 185 616 l 177 660 q 177 689 191 698 q 204 706 230 706 z"},"u":{"x_min":0,"x_max":542,"ha":542,"o":"m 465 230 l 469 130 q 469 89 451 58 q 433 28 406 28 q 378 28 368 44 q 364 50 359 67 q 354 84 349 84 q 341 84 318 68 q 235 12 178 12 l 167 12 q 132 12 104 39 q 76 65 76 112 l 76 124 q 76 160 97 260 q 119 361 119 377 q 119 393 109 411 q 99 429 99 430 q 99 450 141 450 l 151 450 q 192 450 192 381 q 192 353 172 266 q 152 179 152 140 q 152 59 213 58 q 245 58 282 87 q 319 116 350 163 q 381 210 406 316 q 430 421 455 421 q 485 421 485 383 q 485 365 475 311 q 465 256 465 230 z"},"]":{"x_min":0,"x_max":352,"ha":352,"o":"m 87 -154 l 52 -155 q 36 -156 28 -156 l 6 -157 l -4 -157 q -19 -157 -19 -142 q -19 -127 5 -116 q 13 -112 46 -108 q 79 -104 90 -98 q 108 -88 119 -54 q 130 -19 167 156 q 204 331 231 453 q 258 575 258 609 q 258 644 249 652 q 240 660 210 666 q 180 671 172 675 q 158 681 158 699 q 158 716 186 716 l 217 716 l 229 716 q 240 715 278 715 q 316 715 328 708 q 340 702 340 683 q 340 665 268 310 q 196 -45 182 -91 q 169 -137 156 -145 q 142 -154 87 -154 z"},"U":{"x_min":0,"x_max":698,"ha":698,"o":"m 610 250 q 587 167 558 121 q 520 60 455 29 q 391 -1 326 -1 l 305 -1 q 222 -1 167 45 q 113 91 113 181 l 113 200 q 113 239 144 378 q 174 518 174 542 q 174 566 163 585 q 152 604 152 621 q 152 638 183 661 q 196 671 229 671 l 244 671 q 287 671 287 642 q 287 635 276 616 q 265 596 260 576 q 254 556 224 376 q 194 197 194 186 q 194 116 238 81 q 273 53 334 53 q 395 53 439 86 q 484 120 512 179 q 540 239 572 388 q 604 538 604 595 q 604 603 602 620 l 599 630 l 598 641 q 598 659 613 665 q 622 668 651 668 q 681 668 698 656 q 715 644 715 624 q 715 604 693 571 q 671 537 665 521 q 659 506 637 386 q 614 266 610 250 z"},"o":{"x_min":0,"x_max":514,"ha":514,"o":"m 224 52 l 238 52 q 265 52 296 77 q 328 102 349 139 q 400 228 400 318 l 400 324 q 400 369 383 398 q 365 428 330 428 l 321 428 q 295 428 264 407 q 232 387 209 350 q 152 255 152 162 l 152 157 q 152 106 171 79 q 191 52 224 52 z m 485 342 l 485 320 q 485 267 462 210 q 438 152 404 109 q 369 65 316 33 q 264 1 214 1 l 193 1 q 140 1 106 42 q 73 82 73 145 l 73 160 q 73 211 95 270 q 118 330 160 381 q 243 480 347 480 q 408 480 447 439 q 485 398 485 342 z"},"N":{"x_min":0,"x_max":716,"ha":716,"o":"m 616 639 q 616 687 695 687 q 722 687 734 673 q 747 659 747 646 q 747 633 721 595 q 695 557 679 500 q 663 443 632 275 q 602 107 589 60 q 576 12 557 12 q 519 12 487 67 q 456 123 368 325 q 281 528 264 528 q 252 528 245 509 q 238 489 202 322 q 167 154 167 127 l 168 112 l 172 83 q 172 56 146 34 q 121 12 87 12 l 69 12 q 44 12 44 22 l 44 36 q 44 46 60 67 l 72 81 l 83 95 q 99 119 111 174 q 177 468 177 592 q 177 601 169 621 q 162 642 162 651 q 162 669 196 669 q 231 669 256 653 q 281 638 318 585 q 354 532 442 342 q 529 152 530 152 q 537 152 542 170 q 623 492 623 592 l 621 609 q 616 638 616 639 z"},"+":{"x_min":0,"x_max":581,"ha":581,"o":"m 271 229 q 271 250 140 250 q 96 250 96 264 l 96 271 q 96 296 102 303 q 109 310 146 310 l 189 312 l 240 313 q 280 313 283 319 q 286 326 286 407 q 286 488 297 506 q 304 518 335 518 q 354 518 354 495 q 354 488 351 461 l 348 443 q 346 430 343 386 q 339 342 339 332 q 339 313 466 313 q 516 313 516 297 q 516 266 508 260 q 500 253 464 253 l 420 250 l 403 250 l 378 250 q 335 250 330 246 q 325 242 325 158 q 325 74 314 54 q 308 43 276 43 l 268 43 q 258 43 258 65 l 266 145 q 271 221 271 229 z"},"G":{"x_min":0,"x_max":694,"ha":694,"o":"m 359 -11 l 342 -11 q 341 -11 340 -11 q 299 -11 255 8 q 160 48 112 174 q 92 228 92 283 l 92 302 q 92 365 118 438 q 146 512 197 566 q 311 685 460 685 q 568 685 629 660 q 645 653 658 634 q 672 615 672 595 l 672 581 q 672 569 662 555 q 651 542 639 542 q 627 542 596 573 q 565 604 533 618 q 500 633 446 633 q 392 633 338 603 q 225 539 179 398 q 159 336 159 280 q 159 178 214 122 q 269 66 348 66 q 386 66 424 79 q 462 92 482 111 q 515 141 515 198 q 515 222 506 236 q 497 249 478 260 q 458 271 458 277 q 458 292 476 300 q 494 308 548 308 q 602 308 624 297 q 638 291 638 272 q 638 270 617 231 q 597 192 576 123 q 555 54 541 38 q 526 22 495 17 q 465 12 426 0 q 387 -11 359 -11 z"},"q":{"x_min":0,"x_max":532,"ha":532,"o":"m 198 58 l 206 58 q 237 58 274 87 q 346 146 380 264 q 396 321 396 361 l 396 365 q 396 396 378 411 q 360 426 333 426 l 324 426 q 296 426 266 406 q 199 360 163 251 q 145 199 145 161 l 145 135 q 145 103 159 80 q 174 58 198 58 z m 339 7 q 339 28 312 28 l 282 20 q 232 4 196 4 q 143 4 108 43 q 73 82 73 141 l 73 154 q 73 201 92 259 q 111 317 149 369 q 226 474 317 474 q 364 474 398 457 q 424 446 431 446 q 438 446 451 458 q 465 469 479 469 q 493 469 493 440 q 493 438 472 365 q 452 292 414 129 q 375 -33 375 -89 q 375 -105 386 -127 q 396 -149 396 -162 q 396 -174 383 -188 q 370 -202 343 -202 q 292 -202 292 -168 q 292 -155 316 -90 q 339 -26 339 7 z"},"d":{"x_min":0,"x_max":545,"ha":545,"o":"m 147 158 l 147 133 q 147 97 163 78 q 179 60 202 60 l 206 60 l 210 60 q 234 60 268 82 q 300 103 331 149 q 361 194 380 258 q 398 322 398 360 l 398 364 q 398 392 383 408 q 368 424 341 424 l 327 424 q 268 424 215 352 q 185 310 166 253 q 147 197 147 158 z m 531 717 l 540 717 q 567 717 567 689 l 567 679 q 567 654 503 418 q 439 182 439 143 q 439 131 447 106 q 455 82 455 82 q 455 61 438 45 q 420 30 392 30 q 385 30 366 45 q 360 49 339 49 l 329 49 l 318 50 l 313 51 q 300 51 261 34 q 223 17 198 17 l 188 17 q 140 17 109 60 q 78 103 78 158 l 78 169 q 78 213 104 279 q 131 344 177 391 q 223 438 267 456 q 311 473 384 473 q 430 473 451 505 q 481 551 481 630 l 477 669 q 477 690 493 703 q 509 717 531 717 z"},"1":{"x_min":0,"x_max":508,"ha":508,"o":"m 246 0 l 228 0 l 218 0 q 163 0 123 24 q 112 30 112 41 q 112 64 158 92 q 205 119 219 161 q 233 203 261 338 q 289 472 289 521 q 289 543 273 550 q 256 557 222 557 q 188 557 188 571 q 188 585 210 597 q 319 653 366 653 q 387 653 387 632 l 387 624 q 387 590 344 380 q 301 170 301 158 q 301 126 327 96 q 354 66 354 50 q 354 33 331 23 q 279 0 246 0 z"},"5":{"x_min":0,"x_max":533,"ha":533,"o":"m 389 216 q 389 350 220 350 l 192 349 q 162 349 150 358 q 138 368 138 390 q 138 412 169 510 q 199 607 214 626 q 229 646 251 650 q 274 655 343 655 q 411 655 441 658 l 456 660 q 481 663 484 663 l 497 663 q 525 663 525 652 l 525 641 q 525 608 487 593 q 469 586 374 586 q 278 586 260 568 q 247 556 228 505 q 208 455 208 439 q 208 423 215 418 q 222 413 270 413 q 356 413 412 366 q 467 319 467 235 q 467 131 389 55 q 356 23 307 1 q 258 -21 203 -21 l 187 -21 q 131 -21 83 7 q 34 34 34 58 q 34 93 69 93 q 72 93 131 55 q 161 35 201 35 q 284 35 338 90 q 364 117 377 151 q 389 186 389 216 z"}}}
